<?xml version="1.0" encoding="utf-8"?>
<!-- Generator: Adobe Illustrator 21.0.1, SVG Export Plug-In . SVG Version: 6.00 Build 0)  -->
<svg version="1.1" id="Layer_1" xmlns="http://www.w3.org/2000/svg" xmlns:xlink="http://www.w3.org/1999/xlink" x="0px" y="0px"
	 viewBox="0 0 57 16" style="enable-background:new 0 0 57 16;" xml:space="preserve">
<style type="text/css">
	.st0{fill:#FFFFFF;}
</style>
<title>rave-dark</title>
<desc>Created with Sketch.</desc>
<g id="Page-1">
	<g id="home" transform="translate(-198.000000, -78.000000)">
		<g id="Group-26" transform="translate(151.000000, 64.000000)">
			<g id="logo">
				<path id="rave" class="st0" d="M51.4,14.8H48V29h3.5v-8.8c1.2-1.5,2.9-2.3,5.2-2.4v-3.3c-2.2,0-3.9,0.8-5.2,2.1V14.8z
					 M68.7,14.8h3.4V29h-3.4v-1c-1.2,0.8-2.6,1.3-4.3,1.3c-4,0-7.1-3.3-7.1-7.4c0-4.1,3.2-7.4,7.1-7.4c1.7,0,3.2,0.5,4.3,1.3V14.8z
					 M64.9,26.3c1.5,0,2.8-0.5,3.8-2v-4.8c-1-1.5-2.4-2-3.8-2c-2.4,0-4.2,2.1-4.2,4.4C60.7,24.3,62.4,26.3,64.9,26.3z M89.6,14.8
					L83.1,29H80l-6.5-14.2h3.7l4.4,9.8l4.4-9.8H89.6z M103.8,21.7c0,0.5,0,0.8-0.1,1.1h-11c0.3,2,1.7,3.6,4.3,3.6
					c1.4,0,2.4-0.4,2.9-1.3h3.7c-0.8,2.6-3.4,4.4-6.7,4.4c-4.5,0-7.6-3.3-7.6-7.5c0-4.4,3-7.6,7.5-7.6
					C100.8,14.4,103.7,17.3,103.8,21.7z M96.7,17.3c-2.3,0-3.6,1.4-4,3.4h7.5C100,18.6,98.8,17.3,96.7,17.3z"/>
			</g>
		</g>
	</g>
</g>
</svg>
